<svg xmlns="http://www.w3.org/2000/svg" viewBox="0 0 512 512">
  <rect width="512" height="512" rx="112" fill="#08110b"/>
  <path d="M126 170c7-53 45-87 94-87 27 0 54 10 77 29-41 3-73 31-84 75" fill="none" stroke="#635d58" stroke-width="26" stroke-linecap="round"/>
  <path d="M386 170c-7-53-45-87-94-87-27 0-54 10-77 29 41 3 73 31 84 75" fill="none" stroke="#635d58" stroke-width="26" stroke-linecap="round"/>
  <path d="M173 197 119 263 204 249Z" fill="#d9cfbd"/>
  <path d="M339 197 393 263 308 249Z" fill="#d9cfbd"/>
  <ellipse cx="256" cy="286" rx="120" ry="132" fill="#f2ebdc"/>
  <ellipse cx="256" cy="231" rx="92" ry="72" fill="#f2ebdc"/>
  <ellipse cx="205" cy="225" rx="40" ry="56" fill="#d9cfbd"/>
  <ellipse cx="307" cy="225" rx="40" ry="56" fill="#d9cfbd"/>
  <ellipse cx="256" cy="256" rx="100" ry="78" fill="#f2ebdc"/>
  <ellipse cx="256" cy="326" rx="72" ry="57" fill="#e8d9cf"/>
  <ellipse cx="216" cy="271" rx="9" ry="12" fill="#1a1210"/>
  <ellipse cx="296" cy="271" rx="9" ry="12" fill="#1a1210"/>
  <ellipse cx="233" cy="338" rx="11" ry="8" fill="#b8a19d"/>
  <ellipse cx="279" cy="338" rx="11" ry="8" fill="#b8a19d"/>
  <ellipse cx="256" cy="403" rx="98" ry="48" fill="#f2ebdc"/>
  <ellipse cx="201" cy="417" rx="28" ry="40" fill="#d9cfbd"/>
  <ellipse cx="311" cy="417" rx="28" ry="40" fill="#d9cfbd"/>
</svg>
